<svg width="64" height="64" viewBox="0 0 64 64" fill="none" xmlns="http://www.w3.org/2000/svg" role="img" aria-label="Naija Vibes News">
  <rect x="4" y="6" width="52" height="52" rx="10" fill="url(#panelGradient)" stroke="#0F172A" stroke-width="1.6" />
  <rect x="10" y="14" width="44" height="36" rx="6" fill="#0B1B3C" opacity="0.18" />
  <path d="M12 18h40v28c0 2.2-1.8 4-4 4H16c-2.2 0-4-1.8-4-4V18Z" fill="#0F172A" fill-opacity="0.35"/>
  <rect x="16" y="20" width="24" height="6" rx="2" fill="#F6FBFF" fill-opacity="0.95" />
  <rect x="16" y="30" width="18" height="4" rx="1.6" fill="#C8D9FF" />
  <rect x="16" y="38" width="18" height="4" rx="1.6" fill="#C8D9FF" />
  <rect x="38" y="28" width="10" height="14" rx="2" fill="#8E5BFF" />
  <path d="M40 38c2.2-0.8 3.2-2 3.8-4.2l2.2 5.2h-6Z" fill="#FDF7FF"/>
  <circle cx="12" cy="18" r="3.5" fill="#10B981" stroke="#043227" stroke-width="1" />
  <path d="M11 18.2 12.6 20l3-4" stroke="#E6FFFA" stroke-width="1.2" stroke-linecap="round" stroke-linejoin="round" />
  <defs>
    <linearGradient id="panelGradient" x1="8" y1="6" x2="56" y2="58" gradientUnits="userSpaceOnUse">
      <stop stop-color="#0B1B3C"/>
      <stop offset="0.5" stop-color="#214680"/>
      <stop offset="1" stop-color="#8E5BFF"/>
    </linearGradient>
  </defs>
</svg>
