<svg width="64" height="64" viewBox="0 0 64 64" fill="none" xmlns="http://www.w3.org/2000/svg">
  <rect width="64" height="64" rx="12" fill="#000000"/>
  <path d="M39.5 12H47C47 20.2188 53.7812 27 62 27V34.6875C55.5312 34.6875 49.8125 32.0625 47 27.9375V42.25C47 51.7188 39.25 59 29.5 59C19.75 59 12 51.4688 12 41.7188C12 31.9688 19.75 24.4375 29.5 24.4375C30.625 24.4375 31.7188 24.5312 32.7812 24.7188V32.75C31.7812 32.4062 30.6875 32.2188 29.5 32.2188C24.6562 32.2188 20.7188 36.2188 20.7188 41.0312C20.7188 45.875 24.6562 49.8125 29.5 49.8125C34.3438 49.8125 38.2812 45.875 38.2812 41.0312V12H39.5Z" fill="#ffffff"/>
  <path d="M47 27.9375C49.8125 32.0625 55.5312 34.6875 62 34.6875V27C53.7812 27 47 20.2188 47 12H39.5V41.0312C39.5 45.875 35.5625 49.8125 30.7188 49.8125C25.875 49.8125 21.9375 45.875 21.9375 41.0312C21.9375 36.2188 25.875 32.2188 30.7188 32.2188C31.9062 32.2188 33 32.4062 34 32.75V24.7188C32.9375 24.5312 31.8438 24.4375 30.7188 24.4375C20.9688 24.4375 13.2188 31.9688 13.2188 41.7188C13.2188 51.4688 20.9688 59 30.7188 59C40.4688 59 48.2188 51.7188 48.2188 42.25L48.2188 27.9375H47Z" fill="#25F4EE" opacity="0.85"/>
  <path d="M47 27.9375C49.8125 32.0625 55.5312 34.6875 62 34.6875V27C53.7812 27 47 20.2188 47 12H39.5V41.0312C39.5 45.875 35.5625 49.8125 30.7188 49.8125C25.875 49.8125 21.9375 45.875 21.9375 41.0312C21.9375 36.2188 25.875 32.2188 30.7188 32.2188C31.9062 32.2188 33 32.4062 34 32.75V24.7188C32.9375 24.5312 31.8438 24.4375 30.7188 24.4375C20.9688 24.4375 13.2188 31.9688 13.2188 41.7188C13.2188 51.4688 20.9688 59 30.7188 59C40.4688 59 48.2188 51.7188 48.2188 42.25L48.2188 27.9375H47Z" fill="#FE2C55" opacity="0.65"/>
</svg>
